<svg width="18" height="18" viewBox="0 0 18 18" fill="none" xmlns="http://www.w3.org/2000/svg">
<path d="M17.6705 1.92057C18.1098 1.48122 18.1098 0.76889 17.6705 0.329529C17.2312 -0.109832 16.5189 -0.109845 16.0795 0.329501L9 7.40899L1.92048 0.329501C1.48113 -0.109845 0.768823 -0.109832 0.329491 0.329529C-0.109841 0.76889 -0.109829 1.48122 0.329519 1.92057L7.40898 9L0.329519 16.0794C-0.109829 16.5188 -0.109841 17.2311 0.329491 17.6705C0.768823 18.1098 1.48113 18.1098 1.92048 17.6705L9 10.591L16.0795 17.6705C16.5189 18.1098 17.2312 18.1098 17.6705 17.6705C18.1098 17.2311 18.1098 16.5188 17.6705 16.0794L10.591 9L17.6705 1.92057Z" fill="#1A1A1A"/>
</svg>
