<svg width="120" height="40" viewBox="0 0 120 40" fill="none" xmlns="http://www.w3.org/2000/svg">
<path d="M55.77 31.1238C54.65 31.1238 53.67 30.9138 52.83 30.4938C51.99 30.0738 51.31 29.4838 50.79 28.7238L50.37 30.7638H46.95V9.16379H50.79V18.0138C51.27 17.3538 51.9 16.7738 52.68 16.2738C53.48 15.7738 54.51 15.5238 55.77 15.5238C57.17 15.5238 58.42 15.8638 59.52 16.5438C60.62 17.2238 61.49 18.1538 62.13 19.3338C62.77 20.5138 63.09 21.8538 63.09 23.3538C63.09 24.8538 62.77 26.1938 62.13 27.3738C61.49 28.5338 60.62 29.4538 59.52 30.1338C58.42 30.7938 57.17 31.1238 55.77 31.1238ZM54.96 27.7638C56.18 27.7638 57.19 27.3538 57.99 26.5338C58.79 25.7138 59.19 24.6538 59.19 23.3538C59.19 22.0538 58.79 20.9838 57.99 20.1438C57.19 19.3038 56.18 18.8838 54.96 18.8838C53.72 18.8838 52.7 19.3038 51.9 20.1438C51.12 20.9638 50.73 22.0238 50.73 23.3238C50.73 24.6238 51.12 25.6938 51.9 26.5338C52.7 27.3538 53.72 27.7638 54.96 27.7638ZM66.5203 30.7638V15.8838H69.9403L70.3003 18.6738C70.8403 17.7138 71.5703 16.9538 72.4903 16.3938C73.4303 15.8138 74.5303 15.5238 75.7903 15.5238V19.5738H74.7103C73.8703 19.5738 73.1203 19.7038 72.4603 19.9638C71.8003 20.2238 71.2803 20.6738 70.9003 21.3138C70.5403 21.9538 70.3603 22.8438 70.3603 23.9838V30.7638H66.5203ZM80.4848 13.5738C79.7848 13.5738 79.2048 13.3638 78.7448 12.9438C78.3048 12.5238 78.0848 11.9938 78.0848 11.3538C78.0848 10.7138 78.3048 10.1938 78.7448 9.79379C79.2048 9.37379 79.7848 9.16379 80.4848 9.16379C81.1848 9.16379 81.7548 9.37379 82.1948 9.79379C82.6548 10.1938 82.8848 10.7138 82.8848 11.3538C82.8848 11.9938 82.6548 12.5238 82.1948 12.9438C81.7548 13.3638 81.1848 13.5738 80.4848 13.5738ZM78.5648 30.7638V15.8838H82.4048V30.7638H78.5648ZM93.7029 31.1238C92.1829 31.1238 90.8429 30.7938 89.6829 30.1338C88.5229 29.4738 87.6029 28.5538 86.9229 27.3738C86.2629 26.1938 85.9329 24.8438 85.9329 23.3238C85.9329 21.8038 86.2629 20.4538 86.9229 19.2738C87.6029 18.0938 88.5229 17.1738 89.6829 16.5138C90.8429 15.8538 92.1829 15.5238 93.7029 15.5238C95.6029 15.5238 97.2029 16.0238 98.5029 17.0238C99.8029 18.0038 100.633 19.3638 100.993 21.1038H96.9429C96.7429 20.3838 96.3429 19.8238 95.7429 19.4238C95.1629 19.0038 94.4729 18.7938 93.6729 18.7938C92.6129 18.7938 91.7129 19.1938 90.9729 19.9938C90.2329 20.7938 89.8629 21.9038 89.8629 23.3238C89.8629 24.7438 90.2329 25.8538 90.9729 26.6538C91.7129 27.4538 92.6129 27.8538 93.6729 27.8538C94.4729 27.8538 95.1629 27.6538 95.7429 27.2538C96.3429 26.8538 96.7429 26.2838 96.9429 25.5438H100.993C100.633 27.2238 99.8029 28.5738 98.5029 29.5938C97.2029 30.6138 95.6029 31.1238 93.7029 31.1238ZM104.401 30.7638V9.16379H108.241V21.9138L113.521 15.8838H118.081L111.991 22.6638L119.071 30.7638H114.271L108.241 23.2938V30.7638H104.401Z" fill="#FF3300"/>
<path d="M8.09843 3.38987C5.11024 4.12609 2.68504 6.11822 1.12598 9.0631C0.389764 10.4056 0.30315 12.008 0.173228 24.134L0 37.6891L12.5157 37.5592C24.3386 37.4292 25.0748 37.3859 26.7205 36.4765C29.0157 35.2639 31.0079 33.0985 32.0906 30.7166C32.8701 28.9844 33 27.8584 33 21.0592V13.3938H28.2362H23.4724V8.19696V3.00011L16.4567 3.04342C12.5591 3.08672 8.83465 3.21664 8.09843 3.38987ZM20.874 9.49617V13.3938H11.7795H2.68504V12.2678C2.68504 10.4489 4.02756 8.19696 5.84646 6.85444C7.57874 5.59853 7.57874 5.59853 14.248 5.59853H20.874V9.49617ZM20.874 20.3229V25.0867H11.7795H2.68504V20.3229V15.5592H11.7795H20.874V20.3229ZM30.6181 20.3229V24.8702L27.0669 25.0001L23.4724 25.13V20.6261C23.4724 18.1576 23.6024 15.9922 23.7756 15.819C23.9488 15.6458 25.5512 15.6025 27.3701 15.6458L30.6181 15.7757V20.3229ZM10.4803 31.3663V35.4804H6.58268H2.68504V31.3663V27.2521H6.58268H10.4803V31.3663ZM30.5315 27.5552C30.9646 28.4214 29.752 30.9332 28.1063 32.5789C25.7244 34.9607 23.8622 35.4804 17.6693 35.4804H12.6457V31.6694C12.6457 29.5474 12.7756 27.6851 12.9488 27.5552C13.3386 27.1222 30.315 27.1655 30.5315 27.5552Z" fill="#FF3300"/>
</svg>
